<svg viewBox="0 0 794 1123" xmlns="http://www.w3.org/2000/svg" font-family="'Malgun Gothic',sans-serif" fill="#111">
<rect x="39.4" y="98.7" width="139.2" height="34.9" fill="#feece3"/>
<rect x="178.6" y="98.7" width="576.0" height="34.9" fill="#feece3"/>
<rect x="39.4" y="193.4" width="139.2" height="29.8" fill="#feece3"/>
<rect x="178.6" y="193.4" width="576.0" height="29.8" fill="#feece3"/>
<rect x="695.4" y="293.2" width="58.7" height="25.1" fill="#fff3e5"/>
<rect x="695.4" y="383.3" width="62.4" height="25.1" fill="#fff3e5"/>
<rect x="39.4" y="419.6" width="139.2" height="30.6" fill="#feece3"/>
<rect x="178.6" y="419.6" width="576.0" height="30.6" fill="#feece3"/>
<rect x="39.4" y="553.3" width="139.2" height="26.2" fill="#feece3"/>
<rect x="178.6" y="553.3" width="576.0" height="26.2" fill="#feece3"/>
<rect x="39.4" y="779.5" width="715.3" height="26.2" fill="#feece3"/>
<rect x="39.4" y="933.8" width="715.3" height="25.1" fill="#d9d9d9"/>
<line x1="43.4" y1="233.1" x2="43.4" y2="403.3" stroke="#333" stroke-width="0.8"/>
<line x1="43.4" y1="403.3" x2="176.1" y2="403.3" stroke="#333" stroke-width="0.8"/>
<line x1="176.1" y1="403.3" x2="176.1" y2="233.1" stroke="#333" stroke-width="0.8"/>
<line x1="176.1" y1="233.1" x2="43.4" y2="233.1" stroke="#333" stroke-width="0.8"/>
<line x1="39.4" y1="98.7" x2="39.4" y2="133.6" stroke="#333" stroke-width="0.8"/>
<line x1="39.4" y1="133.6" x2="178.6" y2="133.6" stroke="#333" stroke-width="0.8"/>
<line x1="178.6" y1="133.6" x2="178.6" y2="98.7" stroke="#333" stroke-width="0.8"/>
<line x1="178.6" y1="98.7" x2="39.4" y2="98.7" stroke="#333" stroke-width="0.8"/>
<line x1="178.6" y1="98.7" x2="178.6" y2="133.6" stroke="#333" stroke-width="0.8"/>
<line x1="178.6" y1="133.6" x2="754.6" y2="133.6" stroke="#333" stroke-width="0.8"/>
<line x1="754.6" y1="133.6" x2="754.6" y2="98.7" stroke="#333" stroke-width="0.8"/>
<line x1="754.6" y1="98.7" x2="178.6" y2="98.7" stroke="#333" stroke-width="0.8"/>
<line x1="39.4" y1="193.4" x2="39.4" y2="223.1" stroke="#333" stroke-width="0.8"/>
<line x1="39.4" y1="223.1" x2="178.6" y2="223.1" stroke="#333" stroke-width="0.8"/>
<line x1="178.6" y1="223.1" x2="178.6" y2="193.4" stroke="#333" stroke-width="0.8"/>
<line x1="178.6" y1="193.4" x2="39.4" y2="193.4" stroke="#333" stroke-width="0.8"/>
<line x1="178.6" y1="193.4" x2="178.6" y2="223.1" stroke="#333" stroke-width="0.8"/>
<line x1="178.6" y1="223.1" x2="754.6" y2="223.1" stroke="#333" stroke-width="0.8"/>
<line x1="754.6" y1="223.1" x2="754.6" y2="193.4" stroke="#333" stroke-width="0.8"/>
<line x1="754.6" y1="193.4" x2="178.6" y2="193.4" stroke="#333" stroke-width="0.8"/>
<line x1="695.4" y1="293.2" x2="695.4" y2="318.3" stroke="#333" stroke-width="0.8"/>
<line x1="695.4" y1="318.3" x2="754.1" y2="318.3" stroke="#333" stroke-width="0.8"/>
<line x1="754.1" y1="318.3" x2="754.1" y2="293.2" stroke="#333" stroke-width="0.8"/>
<line x1="754.1" y1="293.2" x2="695.4" y2="293.2" stroke="#333" stroke-width="0.8"/>
<line x1="695.4" y1="293.2" x2="695.4" y2="318.3" stroke="#f56825" stroke-width="0.48"/>
<line x1="695.4" y1="293.2" x2="695.4" y2="318.3" stroke="#7f7f7f" stroke-width="0.48"/>
<line x1="754.1" y1="293.2" x2="754.1" y2="318.3" stroke="#ff0000" stroke-width="2.72"/>
<line x1="671.7" y1="293.2" x2="695.7" y2="293.2" stroke="#f56825" stroke-width="0.48"/>
<line x1="695.3" y1="293.2" x2="755.6" y2="293.2" stroke="#7f7f7f" stroke-width="0.48"/>
<line x1="671.7" y1="318.3" x2="695.7" y2="318.3" stroke="#f56825" stroke-width="0.48"/>
<line x1="695.3" y1="318.3" x2="755.6" y2="318.3" stroke="#7f7f7f" stroke-width="0.48"/>
<line x1="754.1" y1="293.2" x2="754.1" y2="318.3" stroke="#ff0000" stroke-width="2.72"/>
<line x1="671.7" y1="318.3" x2="695.7" y2="318.3" stroke="#f56825" stroke-width="0.48"/>
<line x1="695.3" y1="318.3" x2="755.6" y2="318.3" stroke="#7f7f7f" stroke-width="0.48"/>
<line x1="695.3" y1="293.2" x2="755.6" y2="293.2" stroke="#7f7f7f" stroke-width="0.48"/>
<line x1="671.7" y1="293.2" x2="695.7" y2="293.2" stroke="#f56825" stroke-width="0.48"/>
<line x1="566.9" y1="345.4" x2="566.9" y2="371.7" stroke="#f56825" stroke-width="0.48"/>
<line x1="540.6" y1="345.4" x2="567.2" y2="345.4" stroke="#f56825" stroke-width="0.48"/>
<line x1="566.9" y1="345.4" x2="566.9" y2="371.7" stroke="#f56825" stroke-width="0.48"/>
<line x1="540.6" y1="345.4" x2="567.2" y2="345.4" stroke="#f56825" stroke-width="0.48"/>
<line x1="695.4" y1="383.3" x2="695.4" y2="408.4" stroke="#333" stroke-width="0.8"/>
<line x1="695.4" y1="408.4" x2="757.8" y2="408.4" stroke="#333" stroke-width="0.8"/>
<line x1="757.8" y1="408.4" x2="757.8" y2="383.3" stroke="#333" stroke-width="0.8"/>
<line x1="757.8" y1="383.3" x2="695.4" y2="383.3" stroke="#333" stroke-width="0.8"/>
<line x1="695.4" y1="383.3" x2="695.4" y2="408.4" stroke="#f56825" stroke-width="0.48"/>
<line x1="695.4" y1="383.3" x2="695.4" y2="408.4" stroke="#7f7f7f" stroke-width="0.48"/>
<line x1="757.8" y1="383.3" x2="757.8" y2="408.4" stroke="#ff0000" stroke-width="2.72"/>
<line x1="671.7" y1="383.3" x2="695.7" y2="383.3" stroke="#f56825" stroke-width="0.48"/>
<line x1="695.3" y1="383.3" x2="759.3" y2="383.3" stroke="#7f7f7f" stroke-width="0.48"/>
<line x1="671.7" y1="408.4" x2="695.7" y2="408.4" stroke="#f56825" stroke-width="0.48"/>
<line x1="695.3" y1="408.4" x2="759.3" y2="408.4" stroke="#7f7f7f" stroke-width="0.48"/>
<line x1="757.8" y1="383.3" x2="757.8" y2="408.4" stroke="#ff0000" stroke-width="2.72"/>
<line x1="671.7" y1="408.4" x2="695.7" y2="408.4" stroke="#f56825" stroke-width="0.48"/>
<line x1="695.3" y1="408.4" x2="759.3" y2="408.4" stroke="#7f7f7f" stroke-width="0.48"/>
<line x1="695.3" y1="383.3" x2="759.3" y2="383.3" stroke="#7f7f7f" stroke-width="0.48"/>
<line x1="671.7" y1="383.3" x2="695.7" y2="383.3" stroke="#f56825" stroke-width="0.48"/>
<line x1="39.4" y1="419.6" x2="39.4" y2="450.1" stroke="#333" stroke-width="0.8"/>
<line x1="39.4" y1="450.1" x2="178.6" y2="450.1" stroke="#333" stroke-width="0.8"/>
<line x1="178.6" y1="450.1" x2="178.6" y2="419.6" stroke="#333" stroke-width="0.8"/>
<line x1="178.6" y1="419.6" x2="39.4" y2="419.6" stroke="#333" stroke-width="0.8"/>
<line x1="178.6" y1="419.6" x2="178.6" y2="450.1" stroke="#333" stroke-width="0.8"/>
<line x1="178.6" y1="450.1" x2="754.6" y2="450.1" stroke="#333" stroke-width="0.8"/>
<line x1="754.6" y1="450.1" x2="754.6" y2="419.6" stroke="#333" stroke-width="0.8"/>
<line x1="754.6" y1="419.6" x2="178.6" y2="419.6" stroke="#333" stroke-width="0.8"/>
<line x1="267.3" y1="434.3" x2="303.1" y2="434.3" stroke="#000000" stroke-width="0.48"/>
<line x1="303.0" y1="434.3" x2="349.1" y2="434.3" stroke="#000000" stroke-width="0.48"/>
<line x1="348.9" y1="434.3" x2="486.9" y2="434.3" stroke="#000000" stroke-width="0.48"/>
<line x1="486.7" y1="434.3" x2="507.4" y2="434.3" stroke="#000000" stroke-width="0.48"/>
<line x1="507.2" y1="434.3" x2="573.8" y2="434.3" stroke="#000000" stroke-width="0.48"/>
<line x1="39.4" y1="553.3" x2="39.4" y2="579.5" stroke="#333" stroke-width="0.8"/>
<line x1="39.4" y1="579.5" x2="178.6" y2="579.5" stroke="#333" stroke-width="0.8"/>
<line x1="178.6" y1="579.5" x2="178.6" y2="553.3" stroke="#333" stroke-width="0.8"/>
<line x1="178.6" y1="553.3" x2="39.4" y2="553.3" stroke="#333" stroke-width="0.8"/>
<line x1="178.6" y1="553.3" x2="178.6" y2="579.5" stroke="#333" stroke-width="0.8"/>
<line x1="178.6" y1="579.5" x2="754.6" y2="579.5" stroke="#333" stroke-width="0.8"/>
<line x1="754.6" y1="579.5" x2="754.6" y2="553.3" stroke="#333" stroke-width="0.8"/>
<line x1="754.6" y1="553.3" x2="178.6" y2="553.3" stroke="#333" stroke-width="0.8"/>
<line x1="491.3" y1="583.5" x2="491.3" y2="609.9" stroke="#f56825" stroke-width="0.48"/>
<line x1="491.3" y1="583.5" x2="491.3" y2="609.9" stroke="#f56825" stroke-width="0.48"/>
<line x1="39.4" y1="779.5" x2="39.4" y2="805.7" stroke="#333" stroke-width="0.8"/>
<line x1="39.4" y1="805.7" x2="754.6" y2="805.7" stroke="#333" stroke-width="0.8"/>
<line x1="754.6" y1="805.7" x2="754.6" y2="779.5" stroke="#333" stroke-width="0.8"/>
<line x1="754.6" y1="779.5" x2="39.4" y2="779.5" stroke="#333" stroke-width="0.8"/>
<line x1="39.4" y1="933.8" x2="39.4" y2="959.0" stroke="#333" stroke-width="0.8"/>
<line x1="39.4" y1="959.0" x2="754.6" y2="959.0" stroke="#333" stroke-width="0.8"/>
<line x1="754.6" y1="959.0" x2="754.6" y2="933.8" stroke="#333" stroke-width="0.8"/>
<line x1="754.6" y1="933.8" x2="39.4" y2="933.8" stroke="#333" stroke-width="0.8"/>
<line x1="39.4" y1="98.7" x2="39.4" y2="188.3" stroke="#ff0000" stroke-width="2.72"/>
<line x1="39.4" y1="193.4" x2="39.4" y2="414.5" stroke="#ff0000" stroke-width="2.72"/>
<line x1="39.4" y1="419.6" x2="39.4" y2="548.0" stroke="#7b7b7b" stroke-width="0.32"/>
<line x1="39.4" y1="553.3" x2="39.4" y2="672.8" stroke="#7b7b7b" stroke-width="0.32"/>
<line x1="39.4" y1="678.2" x2="39.4" y2="928.6" stroke="#ff0000" stroke-width="2.72"/>
<line x1="125.5" y1="450.1" x2="125.5" y2="518.1" stroke="#7f7f7f" stroke-width="0.48"/>
<line x1="178.6" y1="98.7" x2="178.6" y2="188.3" stroke="#7f7f7f" stroke-width="0.48"/>
<line x1="178.6" y1="193.4" x2="178.6" y2="414.5" stroke="#7f7f7f" stroke-width="0.48"/>
<line x1="178.6" y1="419.6" x2="178.6" y2="548.0" stroke="#7f7f7f" stroke-width="0.48"/>
<line x1="178.6" y1="553.3" x2="178.6" y2="672.8" stroke="#7f7f7f" stroke-width="0.48"/>
<line x1="185.8" y1="959.0" x2="185.8" y2="1062.3" stroke="#7f7f7f" stroke-width="0.48"/>
<line x1="234.6" y1="223.1" x2="234.6" y2="321.5" stroke="#7f7f7f" stroke-width="0.48"/>
<line x1="234.6" y1="339.9" x2="234.6" y2="414.5" stroke="#7f7f7f" stroke-width="0.48"/>
<line x1="314.5" y1="223.1" x2="314.5" y2="321.5" stroke="#7f7f7f" stroke-width="0.48"/>
<line x1="314.5" y1="339.9" x2="314.5" y2="414.5" stroke="#7f7f7f" stroke-width="0.48"/>
<line x1="314.5" y1="1016.7" x2="314.5" y2="1062.3" stroke="#7f7f7f" stroke-width="0.48"/>
<line x1="430.2" y1="160.9" x2="430.2" y2="188.3" stroke="#7f7f7f" stroke-width="0.48"/>
<line x1="444.1" y1="1016.7" x2="444.1" y2="1062.3" stroke="#7f7f7f" stroke-width="0.48"/>
<line x1="570.6" y1="339.9" x2="570.6" y2="377.2" stroke="#7f7f7f" stroke-width="0.48"/>
<line x1="577.5" y1="133.6" x2="577.5" y2="188.3" stroke="#7f7f7f" stroke-width="0.48"/>
<line x1="577.5" y1="959.0" x2="577.5" y2="1062.3" stroke="#7f7f7f" stroke-width="0.48"/>
<line x1="662.4" y1="133.6" x2="662.4" y2="160.9" stroke="#7f7f7f" stroke-width="0.48"/>
<line x1="754.6" y1="98.7" x2="754.6" y2="188.3" stroke="#ff0000" stroke-width="2.72"/>
<line x1="754.6" y1="193.4" x2="754.6" y2="414.5" stroke="#ff0000" stroke-width="2.72"/>
<line x1="754.6" y1="419.6" x2="754.6" y2="548.0" stroke="#7b7b7b" stroke-width="0.32"/>
<line x1="754.6" y1="553.3" x2="754.6" y2="672.8" stroke="#7b7b7b" stroke-width="0.32"/>
<line x1="754.6" y1="678.2" x2="754.6" y2="928.6" stroke="#ff0000" stroke-width="2.72"/>
<line x1="38.4" y1="98.7" x2="756.1" y2="98.7" stroke="#ff0000" stroke-width="2.72"/>
<line x1="38.1" y1="133.6" x2="756.1" y2="133.6" stroke="#7f7f7f" stroke-width="0.48"/>
<line x1="38.1" y1="160.9" x2="756.1" y2="160.9" stroke="#7f7f7f" stroke-width="0.48"/>
<line x1="38.1" y1="188.3" x2="756.1" y2="188.3" stroke="#ff0000" stroke-width="2.72"/>
<line x1="39.2" y1="193.4" x2="756.1" y2="193.4" stroke="#ff0000" stroke-width="2.72"/>
<line x1="38.1" y1="223.1" x2="756.1" y2="223.1" stroke="#7f7f7f" stroke-width="0.48"/>
<line x1="234.5" y1="258.5" x2="756.1" y2="258.5" stroke="#7f7f7f" stroke-width="0.48"/>
<line x1="234.5" y1="290.0" x2="756.1" y2="290.0" stroke="#808080" stroke-width="0.48"/>
<line x1="178.5" y1="321.5" x2="756.1" y2="321.5" stroke="#7f7f7f" stroke-width="0.48"/>
<line x1="234.5" y1="321.5" x2="756.1" y2="321.5" stroke="#808080" stroke-width="0.32"/>
<line x1="178.5" y1="339.9" x2="756.1" y2="339.9" stroke="#7f7f7f" stroke-width="0.48"/>
<line x1="234.5" y1="377.2" x2="756.1" y2="377.2" stroke="#808080" stroke-width="0.48"/>
<line x1="38.1" y1="414.5" x2="756.1" y2="414.5" stroke="#ff0000" stroke-width="2.72"/>
<line x1="39.2" y1="419.6" x2="754.9" y2="419.6" stroke="#7b7b7b" stroke-width="0.32"/>
<line x1="39.2" y1="450.1" x2="754.8" y2="450.1" stroke="#7f7f7f" stroke-width="0.48"/>
<line x1="125.3" y1="484.0" x2="754.8" y2="484.0" stroke="#7f7f7f" stroke-width="0.48"/>
<line x1="39.2" y1="518.1" x2="754.8" y2="518.1" stroke="#7f7f7f" stroke-width="0.48"/>
<line x1="39.2" y1="548.0" x2="754.9" y2="548.0" stroke="#787878" stroke-width="0.48"/>
<line x1="39.2" y1="553.3" x2="754.9" y2="553.3" stroke="#7b7b7b" stroke-width="0.32"/>
<line x1="39.2" y1="579.5" x2="754.8" y2="579.5" stroke="#7f7f7f" stroke-width="0.48"/>
<line x1="39.2" y1="613.0" x2="754.8" y2="613.0" stroke="#7f7f7f" stroke-width="0.48"/>
<line x1="39.2" y1="642.9" x2="754.8" y2="642.9" stroke="#787878" stroke-width="0.32"/>
<line x1="39.2" y1="672.8" x2="754.9" y2="672.8" stroke="#787878" stroke-width="0.32"/>
<line x1="39.2" y1="678.2" x2="756.1" y2="678.2" stroke="#ff0000" stroke-width="2.72"/>
<line x1="38.1" y1="779.5" x2="756.1" y2="779.5" stroke="#7b7b7b" stroke-width="0.32"/>
<line x1="38.1" y1="805.7" x2="756.1" y2="805.7" stroke="#7f7f7f" stroke-width="0.48"/>
<line x1="38.1" y1="928.6" x2="756.1" y2="928.6" stroke="#ff0000" stroke-width="2.72"/>
<line x1="38.7" y1="933.8" x2="755.4" y2="933.8" stroke="#7f7f7f" stroke-width="2.72"/>
<line x1="39.2" y1="959.0" x2="754.9" y2="959.0" stroke="#000000" stroke-width="0.48"/>
<line x1="39.2" y1="987.7" x2="577.8" y2="987.7" stroke="#7f7f7f" stroke-width="0.48"/>
<line x1="39.2" y1="1016.7" x2="577.8" y2="1016.7" stroke="#7f7f7f" stroke-width="0.48"/>
<line x1="185.7" y1="1034.0" x2="577.8" y2="1034.0" stroke="#7f7f7f" stroke-width="0.48"/>
<line x1="39.2" y1="1062.3" x2="754.9" y2="1062.3" stroke="#000000" stroke-width="0.48"/>
<line x1="754.6" y1="98.7" x2="754.6" y2="188.3" stroke="#ff0000" stroke-width="2.72"/>
<line x1="754.6" y1="193.4" x2="754.6" y2="414.5" stroke="#ff0000" stroke-width="2.72"/>
<line x1="754.6" y1="419.6" x2="754.6" y2="548.0" stroke="#7b7b7b" stroke-width="0.32"/>
<line x1="754.6" y1="553.3" x2="754.6" y2="672.8" stroke="#7b7b7b" stroke-width="0.32"/>
<line x1="754.6" y1="678.2" x2="754.6" y2="928.6" stroke="#ff0000" stroke-width="2.72"/>
<line x1="39.4" y1="678.2" x2="39.4" y2="928.6" stroke="#ff0000" stroke-width="2.72"/>
<line x1="39.4" y1="553.3" x2="39.4" y2="672.8" stroke="#7b7b7b" stroke-width="0.32"/>
<line x1="39.4" y1="419.6" x2="39.4" y2="548.0" stroke="#7b7b7b" stroke-width="0.32"/>
<line x1="39.4" y1="193.4" x2="39.4" y2="414.5" stroke="#ff0000" stroke-width="2.72"/>
<line x1="39.4" y1="98.7" x2="39.4" y2="188.3" stroke="#ff0000" stroke-width="2.72"/>
<line x1="39.2" y1="1062.3" x2="754.9" y2="1062.3" stroke="#000000" stroke-width="0.48"/>
<line x1="38.4" y1="98.7" x2="756.1" y2="98.7" stroke="#ff0000" stroke-width="2.72"/>
<text x="41.3" y="53.6" font-size="10.7" fill="#000000">■ 여권법 시행규칙 제3조 [별지 제1호서식] </text>
<text x="265.5" y="53.6" font-size="12.0" fill="#0000ff">&lt;개정 2026. 6. 1.&gt;</text>
<text x="287.1" y="76.0" font-size="21.8" fill="#000000">여 권 발 급 신 청 서</text>
<text x="41.3" y="94.8" font-size="10.7" fill="#000000">※ 뒤쪽의 유의사항을 반드시 읽고 검은색으로 작성하시기 바랍니다. </text>
<text x="705.7" y="94.8" font-size="10.7" fill="#000000">(앞쪽)</text>
<text x="61.3" y="123.3" font-size="14.7" fill="#000000">여권 선택란</text>
<text x="180.6" y="114.2" font-size="10.7" fill="#000000">※ 아래 여권 종류, 여권 기간, 여권 면수를 선택하여 해당란에 [√] 표시하시기 바랍니다. 표시가 없으면 일반여권의 경우 </text>
<text x="195.4" y="125.7" font-size="10.7" fill="#000000">10년 유효기간의 58면 여권이 발급되며, 자세한 사항은 접수 담당자의 안내를 받으시기 바랍니다. </text>
<text x="72.4" y="152.1" font-size="13.3" fill="#000000">여 권 종 류</text>
<text x="186.2" y="152.1" font-size="12.6" fill="#ff0000">□</text>
<text x="197.8" y="152.1" font-size="13.3" fill="#000000"> 일반  </text>
<text x="239.1" y="152.1" font-size="12.6" fill="#ff0000">□</text>
<text x="250.5" y="152.1" font-size="13.3" fill="#000000"> 관용 </text>
<text x="286.5" y="152.1" font-size="12.6" fill="#ff0000">□</text>
<text x="297.9" y="152.1" font-size="13.3" fill="#000000"> 외교관 </text>
<text x="346.5" y="152.1" font-size="12.6" fill="#ff0000">□</text>
<text x="358.1" y="152.1" font-size="13.3" fill="#000000"> 긴급 </text>
<text x="393.9" y="152.1" font-size="12.6" fill="#ff0000">□</text>
<text x="410.1" y="152.1" font-size="13.3" fill="#000000">여행증명서(</text>
<text x="479.8" y="152.1" font-size="12.6" fill="#ff0000">□</text>
<text x="491.1" y="152.1" font-size="13.3" fill="#000000"> 왕복 </text>
<text x="527.2" y="152.1" font-size="12.6" fill="#ff0000">□</text>
<text x="538.5" y="152.1" font-size="13.3" fill="#000000"> 편도)</text>
<text x="583.5" y="152.1" font-size="13.3" fill="#000000">여 권 면 수</text>
<text x="669.7" y="152.1" font-size="12.6" fill="#ff0000">□</text>
<text x="679.5" y="152.1" font-size="13.3" fill="#000000"> 26면 </text>
<text x="713.4" y="152.1" font-size="12.6" fill="#ff0000">□</text>
<text x="723.2" y="152.1" font-size="13.3" fill="#000000"> 58면</text>
<text x="72.4" y="179.5" font-size="13.3" fill="#000000">여 권 기 간</text>
<text x="186.2" y="179.5" font-size="12.6" fill="#ff0000">□</text>
<text x="203.4" y="179.5" font-size="13.3" fill="#000000">10년 </text>
<text x="236.8" y="179.5" font-size="12.6" fill="#ff0000">□</text>
<text x="254.0" y="179.5" font-size="13.3" fill="#000000">단수(1년) </text>
<text x="320.6" y="179.5" font-size="12.6" fill="#ff0000">□</text>
<text x="337.7" y="179.5" font-size="13.3" fill="#000000">잔여기간 </text>
<text x="440.7" y="179.5" font-size="13.3" fill="#000000">담당자 문의 후 선택</text>
<text x="586.4" y="179.5" font-size="12.6" fill="#ff0000">□</text>
<text x="603.5" y="179.5" font-size="13.3" fill="#000000">5년  </text>
<text x="636.9" y="179.5" font-size="12.6" fill="#ff0000">□</text>
<text x="648.2" y="179.5" font-size="13.3" fill="#000000"> 5년 미만 </text>
<text x="68.7" y="213.6" font-size="14.7" fill="#000000">필수 기재란</text>
<text x="180.6" y="212.2" font-size="10.7" fill="#000000">※ 뒤쪽의 기재방법을 읽고 신중히 기재하여 주시기 바랍니다. </text>
<text x="92.9" y="264.5" font-size="11.4" fill="#000000">사  진</text>
<text x="41.3" y="278.9" font-size="10.1" fill="#000000"> ㆍ신청일 전 6개월 이내 촬영한 </text>
<text x="41.3" y="292.9" font-size="10.1" fill="#000000">   천연색 상반신 정면 사진</text>
<text x="41.3" y="306.8" font-size="10.1" fill="#000000"> ㆍ흰색 바탕의 무배경 사진</text>
<text x="41.3" y="320.6" font-size="10.1" fill="#000000"> ㆍ색안경과 모자 착용 금지</text>
<text x="41.3" y="334.5" font-size="10.1" fill="#000000"> ㆍ가로 3.5cm x 세로 4.5cm</text>
<text x="41.3" y="348.4" font-size="10.1" fill="#000000"> ㆍ머리(턱부터 정수리까지)  </text>
<text x="41.3" y="362.2" font-size="10.1" fill="#000000">   길이 3.2cm~3.6cm</text>
<text x="193.4" y="269.3" font-size="13.3" fill="#000000">여권</text>
<text x="186.7" y="289.4" font-size="13.3" fill="#000000">신청인</text>
<text x="248.0" y="247.7" font-size="13.3" fill="#000000">한글성명</text>
<text x="248.0" y="281.2" font-size="13.3" fill="#000000">주민번호</text>
<text x="502.7" y="279.3" font-size="13.3" fill="#000000">-</text>
<text x="241.3" y="312.7" font-size="13.3" fill="#000000">본인연락처</text>
<text x="695.8" y="304.6" font-size="10.7" fill="#000000">※‘-’없이 </text>
<text x="695.8" y="315.1" font-size="10.7" fill="#000000">숫자만 기재</text>
<text x="178.7" y="334.8" font-size="10.7" fill="#000000"> ※ 긴급연락처는 다른 사람의 연락처를 기재하십시오.(해외여행 중 사고발생시 지원을 위하여 필요)</text>
<text x="193.4" y="374.2" font-size="13.3" fill="#000000">긴급</text>
<text x="186.7" y="394.2" font-size="13.3" fill="#000000">연락처</text>
<text x="261.3" y="365.6" font-size="13.3" fill="#000000">성명</text>
<text x="585.9" y="356.3" font-size="13.3" fill="#000000">관계</text>
<text x="571.2" y="371.0" font-size="13.3" fill="#000000">(</text>
<text x="577.9" y="371.0" font-size="10.7" fill="#000000">신청인의</text>
<text x="620.5" y="371.0" font-size="13.3" fill="#000000">)</text>
<text x="248.0" y="402.9" font-size="13.3" fill="#000000">전화번호</text>
<text x="695.8" y="394.7" font-size="10.7" fill="#000000">※‘-’없이 </text>
<text x="695.8" y="405.3" font-size="10.7" fill="#000000">숫자만 기재</text>
<text x="61.3" y="442.4" font-size="14.7" fill="#000000">추가 기재란</text>
<text x="180.6" y="432.8" font-size="10.7" fill="#000000"> ※ 로마자성명은 여권을 처음 신청하거나 기존의 로마자성명을 변경하는 경우에만 기재하시고, 뒤쪽 아래의 로마자성명 </text>
<text x="201.0" y="445.2" font-size="10.7" fill="#000000">기재방법을 읽고 신중히 기재하여 주시기 바랍니다. </text>
<text x="62.5" y="482.6" font-size="13.3" fill="#000000">로마자</text>
<text x="55.7" y="499.9" font-size="13.3" fill="#000000">(대문자) </text>
<text x="145.4" y="474.3" font-size="13.3" fill="#000000">성</text>
<text x="138.7" y="508.3" font-size="13.3" fill="#000000">이름</text>
<text x="62.3" y="540.3" font-size="13.3" fill="#000000">등 록 기 준 지</text>
<text x="178.7" y="537.4" font-size="10.7" fill="#000000"> ※ 담당공무원의 요청이 있을 경우 기재합니다.</text>
<text x="61.3" y="574.2" font-size="14.7" fill="#000000">선택 기재란</text>
<text x="178.7" y="570.9" font-size="10.7" fill="#000000"> ※ 원하는 경우에만 기재합니다.</text>
<text x="82.3" y="595.5" font-size="13.3" fill="#000000">배우자의 </text>
<text x="65.7" y="611.5" font-size="13.3" fill="#000000">로마자 성(姓) </text>
<text x="493.5" y="594.1" font-size="10.7" fill="#000000">※ 기재하는 경우 여권에‘spouse of 배우자의 로마자 성’의</text>
<text x="508.1" y="606.9" font-size="10.7" fill="#000000">형태로 표기되며, 대문자로 기재해 주시기 바랍니다.</text>
<text x="82.3" y="635.2" font-size="13.3" fill="#000000">점자여권</text>
<text x="184.8" y="633.2" font-size="12.6" fill="#ff0000">□</text>
<text x="201.9" y="633.2" font-size="13.3" fill="#000000">희망   </text>
<text x="248.5" y="633.2" font-size="12.6" fill="#ff0000">□</text>
<text x="265.7" y="633.2" font-size="13.3" fill="#000000">희망 안 함 </text>
<text x="396.5" y="633.2" font-size="10.7" fill="#000000"> ※ 시각장애인일 경우에만 네모 칸 안에 [√] 표시하시기 바랍니다.</text>
<text x="58.9" y="665.2" font-size="13.3" fill="#000000">우편배송 서비스</text>
<text x="184.5" y="663.3" font-size="12.6" fill="#ff0000">□</text>
<text x="201.6" y="663.3" font-size="13.3" fill="#000000">희망   </text>
<text x="248.2" y="663.3" font-size="12.6" fill="#ff0000">□</text>
<text x="265.3" y="663.3" font-size="13.3" fill="#000000">희망 안 함</text>
<text x="396.5" y="662.3" font-size="10.7" fill="#000000">(상세주소 기재)</text>
<text x="39.4" y="695.6" font-size="13.3" fill="#000000"> 1. 뒤쪽의 유의사항을 확인하고 위의 내용을 작성하였으며, 기재한 내용이 사실임을 확인합니다.</text>
<text x="39.4" y="708.9" font-size="13.3" fill="#000000"> 2.「여권법」제9조 또는 제11조에 따라 여권의 발급을 신청합니다.</text>
<text x="599.9" y="731.6" font-size="12.0" fill="#000000"> 년      월      일</text>
<text x="39.4" y="751.7" font-size="13.3" fill="#000000">                                                   신청인(또는 대리인) 성명                           </text>
<text x="659.1" y="751.7" font-size="10.7" fill="#000000"> (서명 또는 인)</text>
<text x="46.3" y="771.8" font-size="17.3" fill="#000000"> 외 교 부 장 관</text>
<text x="193.4" y="771.8" font-size="13.3" fill="#000000">귀 하</text>
<text x="317.2" y="800.2" font-size="13.3" fill="#000000">행정정보 공동이용 동의서</text>
<text x="39.4" y="829.0" font-size="10.7" fill="#000000"> 본인은 여권 발급 신청과 관련하여 담당 공무원이 「전자정부법」 제36조에 따른 행정정보 공동이용 등을 통하여 본인의 아래 정보를 확인하는 것에</text>
<text x="44.7" y="841.3" font-size="10.7" fill="#000000">동의합니다. (※ 동의하지 않는 경우에는 신청인 또는 위임받은 사람이 해당 서류를 직접 제출해야 합니다.)</text>
<text x="39.4" y="854.0" font-size="12.0" fill="#000000">                                                                                                년      월      일</text>
<text x="39.4" y="873.0" font-size="13.3" fill="#000000">                                                    신청인(또는 대리인) 성명                           </text>
<text x="665.0" y="873.0" font-size="10.7" fill="#000000"> (서명 또는 인)</text>
<text x="39.4" y="909.1" font-size="10.7" fill="#000000">※ ①「가족관계의 등록 등에 관한 법률」에 따른 가족관계등록전산정보자료, ②「주민등록법」에 따른 주민등록전산정보자료, ③「출입국관리법」에 따른 출입</text>
<text x="53.8" y="920.8" font-size="10.7" fill="#000000">국전산정보자료, ④ 장애인증명서</text>
<text x="337.2" y="952.1" font-size="13.3" fill="#000000">접수 담당자 기재란</text>
<text x="86.0" y="979.1" font-size="13.3" fill="#000000">접수번호</text>
<text x="636.4" y="1015.9" font-size="12.0" fill="#000000">(영수확인) </text>
<text x="86.0" y="1008.0" font-size="13.3" fill="#000000">특이사항</text>
<text x="86.0" y="1045.3" font-size="13.3" fill="#000000">심 사 란</text>
<text x="226.3" y="1030.6" font-size="12.0" fill="#000000">접 수 자</text>
<text x="355.5" y="1030.6" font-size="12.0" fill="#000000">심 사 자</text>
<text x="487.1" y="1030.6" font-size="12.0" fill="#000000">발 급 자</text>
<text x="603.7" y="1074.5" font-size="10.7" fill="#000000">210mm×297mm[백상지 120g/㎡]</text>
</svg>
